<svg width="28" height="28" viewBox="0 0 28 28" fill="none" xmlns="http://www.w3.org/2000/svg">
<path d="M14.0123 11.6852V14.0185M14.0123 18.6852V18.6968M5.84556 23.3519H22.1789C22.5596 23.3492 22.9338 23.2534 23.269 23.0729C23.6042 22.8923 23.8901 22.6325 24.1018 22.3161C24.3135 21.9997 24.4446 21.6363 24.4836 21.2576C24.5226 20.8789 24.4683 20.4964 24.3256 20.1435L16.0422 5.85186C15.8404 5.48715 15.5446 5.18316 15.1856 4.97147C14.8266 4.75979 14.4174 4.64814 14.0006 4.64814C13.5838 4.64814 13.1746 4.75979 12.8155 4.97147C12.4565 5.18316 12.1607 5.48715 11.9589 5.85186L3.67556 20.1435C3.53549 20.4884 3.47995 20.8617 3.51357 21.2324C3.54719 21.6031 3.66899 21.9603 3.86882 22.2743C4.06864 22.5883 4.34069 22.85 4.66224 23.0374C4.98379 23.2249 5.34552 23.3327 5.71723 23.3519" stroke="#EB0237" stroke-width="1.8" stroke-linecap="round" stroke-linejoin="round"/>
</svg>
